<svg xmlns="http://www.w3.org/2000/svg" width="8" height="8" viewBox="0 0 8 8" fill="none"><path fill="#789457" d="M0 0h8v8H0z"/><path fill="#ebecd2" d="M0 0h1v1H0zm2 0h1v1H2zm2 0h1v1H4zm2 0h1v1H6zM1 1h1v1H1zm2 0h1v1H3zm2 0h1v1H5zm2 0h1v1H7zM0 2h1v1H0zm2 0h1v1H2zm2 0h1v1H4zm2 0h1v1H6zM1 3h1v1H1zm2 0h1v1H3zm2 0h1v1H5zm2 0h1v1H7zM0 4h1v1H0zm2 0h1v1H2zm2 0h1v1H4zm2 0h1v1H6zM1 5h1v1H1zm2 0h1v1H3zm2 0h1v1H5zm2 0h1v1H7zM0 6h1v1H0zm2 0h1v1H2zm2 0h1v1H4zm2 0h1v1H6zM1 7h1v1H1zm2 0h1v1H3zm2 0h1v1H5zm2 0h1v1H7z"/></svg>